<?xml version="1.0" encoding="utf-8"?>
<!-- Generator: Adobe Illustrator 23.0.2, SVG Export Plug-In . SVG Version: 6.00 Build 0)  -->
<svg version="1.1" xmlns="http://www.w3.org/2000/svg" xmlns:xlink="http://www.w3.org/1999/xlink" x="0px" y="0px"
	 viewBox="0 0 378.2 91.6" style="enable-background:new 0 0 378.2 91.6;" xml:space="preserve">
<style type="text/css">
	.st0{fill:#1C1C1E;}
	.st1{fill:#F4A51F;}
	.st2{fill:#2B2628;stroke:#000000;stroke-miterlimit:10;}
	.st3{fill:#151515;}
	.st4{fill:#010101;}
	.st5{fill:#080808;}
	.st6{fill:#202020;}
	.st7{fill:#FFFFFF;}
	.st8{fill:#F8B02B;}
	.st9{opacity:0.3;}
	.st10{fill:#F4A421;}
	.st11{fill:#F8B850;}
	.st12{fill:#EF9C21;}
</style>
<g id="Layer_1">
	<g>
		<g>
			<path class="st0" d="M126.4,75.3c0,7.2-5.8,13.1-13,13.1c-6.2,0-11.1-4.4-12.8-9.5c-0.8-2.3,1-4.6,3.3-5.1c2.3-0.4,4,1.2,5.1,3.4
				c1.2,2.3,2.3,2.6,4.3,2.6c2.4,0,4.4-2,4.4-4.5c0-2.4-2-4.4-4.4-4.4c-3.5,0-6.8-1.4-9.2-3.8c-2.5-2.4-3.8-5.7-3.8-9.2
				c0-7.2,5.8-13,13-13c6.1,0,11.6,4.2,12.5,9c0.4,2.3-1,4.7-3.3,5.1c-2.3,0.5-4.3-1-5.1-3.2c-0.5-1.4-2-2.3-4.1-2.3
				c-2.4,0-4.4,2-4.4,4.4c0,2.4,2,4.4,4.4,4.4c3.5,0,6.8,1.4,9.2,3.8C125.1,68.6,126.4,71.8,126.4,75.3z"/>
			<path class="st0" d="M130.6,66.5c0-12.1,9.8-21.8,21.8-21.8c12.1,0,21.8,9.7,21.8,21.8c0,12-9.7,21.8-21.8,21.8
				C140.5,88.3,130.6,78.5,130.6,66.5z M139.2,66.5c0,7.2,5.9,13.2,13.2,13.2c7.3,0,13.2-6,13.2-13.2c0-7.3-5.9-13.2-13.2-13.2
				C145.1,53.3,139.2,59.2,139.2,66.5z"/>
			<path class="st0" d="M203.7,49c0,2.4-1.9,4.3-4.3,4.3h-7.6V84c0,2.4-1.9,4.3-4.3,4.3c-2.3,0-4.3-1.9-4.3-4.3V53.3h-4.8
				c-2.3,0-4.3-1.9-4.3-4.3c0-2.3,1.9-4.3,4.3-4.3h4.8c-0.1-6.2,2.2-11.8,6.3-16c2.3-2.3,5-4.1,8.2-5.1c2.2-0.9,4.7,0.3,5.5,2.6
				c0.8,2.2-0.3,4.7-2.6,5.5c-1.8,0.6-3.5,1.7-5,3.1c-2.6,2.6-3.8,6-3.8,9.9h7.6C201.8,44.7,203.7,46.6,203.7,49z"/>
			<path class="st0" d="M238.3,49c0,2.3-1.9,4.3-4.3,4.3h-6.2v30.7c0,2.3-1.9,4.3-4.3,4.3c-2.3,0-4.3-2-4.3-4.3V53.4H213
				c-2.3,0-4.3-2-4.3-4.3c0-2.3,1.9-4.3,4.3-4.3h6.3V27.4c0-2.3,1.9-4.3,4.3-4.3c2.4,0,4.3,1.9,4.3,4.3v17.4h6.2
				C236.4,44.8,238.3,46.7,238.3,49z"/>
			<path class="st1" d="M281.2,66.9v17c0,2.5-1.8,4.3-4.3,4.3c-1.7,0-4.2-1.8-4.2-4.3c-3.7,3.1-7.9,4.3-12.9,4.3
				c-12.2,0-22-9.1-22-21.4s9.7-22,22-22S281.2,54.6,281.2,66.9z M272.7,66.9c0-7.3-5.6-13.5-12.9-13.5c-7.3,0-13.5,6.2-13.5,13.5
				c0,7.3,6.2,12.9,13.5,12.9C267.2,79.7,272.7,74.1,272.7,66.9z"/>
			<path class="st1" d="M286.4,66.5c0-12.1,9.8-21.8,21.8-21.8c12.1,0,21.8,9.7,21.8,21.8c0,12-9.7,21.8-21.8,21.8
				C296.3,88.3,286.4,78.5,286.4,66.5z M295,66.5c0,7.2,5.9,13.2,13.2,13.2c7.3,0,13.2-6,13.2-13.2c0-7.3-5.9-13.2-13.2-13.2
				C301,53.3,295,59.2,295,66.5z"/>
			<path class="st1" d="M369,81.4c1.5,1.9,1.1,4.6-0.8,6c-0.8,0.6-1.7,1-2.6,1c-1.3,0-2.5-0.6-3.4-1.7L352,73.5l-10.2,13.1
				c-0.9,1-2.1,1.7-3.4,1.7c-1,0-1.8-0.3-2.6-1c-1.9-1.4-2.3-4.1-0.8-6l11.5-14.9l-11.5-14.9c-1.5-1.9-1.1-4.6,0.8-6.1
				c1.8-1.5,4.5-1.1,6,0.8L352,59.5l10.2-13.1c1.5-1.9,4.2-2.3,6-0.8c1.9,1.5,2.3,4.2,0.8,6.1l-11.5,14.9L369,81.4z"/>
		</g>
	</g>
	<g>
		<path class="st1" d="M306.1,25.7c-0.2-3.2-0.4-7-0.3-9.9h-0.1c-0.8,2.7-1.7,5.5-2.9,8.7l-4,11.1h-2.2l-3.7-10.9
			c-1.1-3.2-2-6.2-2.7-8.9h-0.1c-0.1,2.9-0.2,6.7-0.4,10.1l-0.6,9.8h-2.8l1.6-22.9h3.8l3.9,11.1c1,2.8,1.7,5.3,2.3,7.7h0.1
			c0.6-2.3,1.4-4.8,2.4-7.7l4.1-11.1h3.8l1.4,22.9h-2.9L306.1,25.7z"/>
		<path class="st1" d="M329.2,27.4c0,6.1-4.2,8.7-8.2,8.7c-4.5,0-7.9-3.3-7.9-8.5c0-5.5,3.6-8.7,8.2-8.7
			C326,18.9,329.2,22.3,329.2,27.4z M316.1,27.5c0,3.6,2.1,6.3,5,6.3c2.9,0,5-2.7,5-6.4c0-2.8-1.4-6.3-4.9-6.3
			C317.6,21.1,316.1,24.4,316.1,27.5z"/>
		<path class="st1" d="M333.9,19.3l3.2,9.2c0.5,1.5,1,2.9,1.3,4.2h0.1c0.4-1.4,0.9-2.7,1.4-4.2l3.2-9.2h3.1l-6.5,16.5h-2.9
			l-6.3-16.5H333.9z"/>
		<path class="st1" d="M352.4,14.6c0,1-0.7,1.8-1.9,1.8c-1.1,0-1.8-0.8-1.8-1.8c0-1.1,0.8-1.9,1.9-1.9
			C351.7,12.8,352.4,13.6,352.4,14.6z M349.1,35.7V19.3h3v16.5H349.1z"/>
		<path class="st1" d="M358.7,28c0.1,4,2.7,5.7,5.6,5.7c2.1,0,3.4-0.4,4.6-0.9l0.5,2.1c-1.1,0.5-2.9,1-5.5,1c-5.1,0-8.1-3.3-8.1-8.3
			c0-5,2.9-8.9,7.7-8.9c5.4,0,6.8,4.7,6.8,7.8c0,0.6-0.1,1.1-0.1,1.4H358.7z M367.4,25.9c0-1.9-0.8-4.9-4.1-4.9
			c-3,0-4.4,2.8-4.6,4.9H367.4z"/>
	</g>
</g>
<g id="Layer_2">
</g>
<g id="Layer_3">
	<path class="st2" d="M91.7,76.2c0,7.7-6.2,13.9-13.8,13.9H20.4c-7.6,0-13.8-6.2-13.8-13.9V18.3c0-7.7,6.2-13.9,13.8-13.9h57.5
		c7.6,0,13.8,6.2,13.8,13.9V76.2z"/>
	<g>
		<polygon class="st3" points="84.1,6.2 84.6,10.7 87.9,8.8 86,6.9 		"/>
		<polygon class="st4" points="91.7,14.7 84.6,10.7 87.9,8.8 89.8,10.7 		"/>
		<polygon class="st5" points="84.6,10.7 91.7,14.7 84.6,18.7 		"/>
		<polygon class="st4" points="91.7,22.7 84.6,18.7 91.7,14.7 		"/>
		<polygon class="st3" points="84.6,18.7 91.7,22.7 84.6,26.7 		"/>
		<polygon class="st6" points="91.7,30.7 84.6,26.7 91.7,22.7 		"/>
		<polygon class="st3" points="84.6,26.7 91.7,30.7 84.6,34.7 		"/>
		<polygon class="st3" points="91.7,38.7 84.6,34.7 91.7,30.7 		"/>
		<polygon class="st3" points="84.6,34.7 91.7,38.7 84.6,42.7 		"/>
		<polygon class="st6" points="91.7,46.7 84.6,42.7 91.7,38.7 		"/>
		<polygon class="st3" points="84.6,42.7 91.7,46.7 84.6,50.7 		"/>
		<polygon class="st4" points="91.7,54.7 84.6,50.7 91.7,46.7 		"/>
		<polygon class="st3" points="84.6,50.7 91.7,54.7 84.6,58.7 		"/>
		<polygon class="st5" points="91.7,62.7 84.6,58.7 91.7,54.7 		"/>
		<polygon class="st3" points="84.6,58.7 91.7,62.7 84.6,66.8 		"/>
		<polygon class="st5" points="91.7,70.8 84.6,66.8 91.7,62.7 		"/>
		<polygon class="st3" points="84.6,66.8 91.7,70.8 84.6,74.8 		"/>
		<polygon class="st3" points="91.7,78.8 84.6,74.8 91.7,70.8 		"/>
		<polygon class="st4" points="84.6,74.8 91.7,78.8 84.6,82.8 		"/>
		<path class="st6" d="M88.7,85.1l-4-2.3l7.1-4c0,0-0.9,2.8-1.3,3.7C90.1,83.2,88.7,85.1,88.7,85.1z"/>
		<polygon class="st5" points="84.6,88 86.7,87 88.7,85.1 84.6,82.8 84.6,88 		"/>
		<path class="st3" d="M79.5,5l-5.1-0.1l10.3,5.8l-0.6-4.5c0,0-1.1-0.5-1.8-0.9C81.6,5,79.5,5,79.5,5z"/>
		<polygon class="st6" points="77.6,6.7 84.6,10.7 77.6,14.7 		"/>
		<polygon class="st6" points="84.6,18.7 77.6,14.7 84.6,10.7 		"/>
		<polygon class="st5" points="77.6,14.7 84.6,18.7 77.6,22.7 		"/>
		<polygon class="st3" points="84.6,26.7 77.6,22.7 84.6,18.7 		"/>
		<polygon class="st5" points="77.6,22.7 84.6,26.7 77.6,30.7 		"/>
		<polygon class="st5" points="84.6,34.7 77.6,30.7 84.6,26.7 		"/>
		<polygon class="st5" points="77.6,30.7 84.6,34.7 77.6,38.7 		"/>
		<polygon class="st4" points="84.6,42.7 77.6,38.7 84.6,34.7 		"/>
		<polygon class="st4" points="77.6,38.7 84.6,42.7 77.6,46.7 		"/>
		<polygon class="st3" points="84.6,50.7 77.6,46.7 84.6,42.7 		"/>
		<polygon class="st4" points="77.6,46.7 84.6,50.7 77.6,54.7 		"/>
		<polygon class="st3" points="84.6,58.7 77.6,54.7 84.6,50.7 		"/>
		<polygon class="st4" points="77.6,54.7 84.6,58.7 77.6,62.7 		"/>
		<polygon class="st3" points="84.6,66.8 77.6,62.7 84.6,58.7 		"/>
		<polygon class="st3" points="77.6,62.7 84.6,66.8 77.6,70.8 		"/>
		<polygon class="st3" points="84.6,74.8 77.6,70.8 84.6,66.8 		"/>
		<polygon class="st3" points="77.6,70.8 84.6,74.8 77.6,78.8 		"/>
		<polygon class="st3" points="84.6,82.8 77.6,78.8 84.6,74.8 		"/>
		<polygon class="st5" points="77.6,78.8 84.6,82.8 77.6,86.8 		"/>
		<polygon class="st3" points="84.6,88 84.6,82.8 77.6,86.8 84.6,88 		"/>
		<polygon class="st4" points="84.6,88 77.6,86.8 77.6,89.6 81.1,89.3 		"/>
		<polygon class="st4" points="70.5,4.4 70.5,10.7 77.6,6.7 73.6,4.4 		"/>
		<polygon class="st4" points="77.6,14.7 70.5,10.7 77.6,6.7 		"/>
		<polygon class="st3" points="70.5,10.7 77.6,14.7 70.5,18.7 		"/>
		<polygon class="st4" points="77.6,22.7 70.5,18.7 77.6,14.7 		"/>
		<polygon class="st5" points="70.5,18.7 77.6,22.7 70.5,26.7 		"/>
		<polygon class="st5" points="77.6,30.7 70.5,26.7 77.6,22.7 		"/>
		<polygon class="st5" points="70.5,26.7 77.6,30.7 70.5,34.7 		"/>
		<polygon class="st4" points="77.6,38.7 70.5,34.7 77.6,30.7 		"/>
		<polygon class="st3" points="70.5,34.7 77.6,38.7 70.5,42.7 		"/>
		<polygon class="st6" points="77.6,46.7 70.5,42.7 77.6,38.7 		"/>
		<polygon class="st3" points="70.5,42.7 77.6,46.7 70.5,50.7 		"/>
		<polygon class="st3" points="77.6,54.7 70.5,50.7 77.6,46.7 		"/>
		<polygon class="st3" points="70.5,50.7 77.6,54.7 70.5,58.7 		"/>
		<polygon class="st3" points="77.6,62.7 70.5,58.7 77.6,54.7 		"/>
		<polygon class="st3" points="70.5,58.7 77.6,62.7 70.5,66.8 		"/>
		<polygon class="st3" points="77.6,70.8 70.5,66.8 77.6,62.7 		"/>
		<polygon class="st3" points="70.5,66.8 77.6,70.8 70.5,74.8 		"/>
		<polygon class="st6" points="77.6,78.8 70.5,74.8 77.6,70.8 		"/>
		<polygon class="st3" points="70.5,74.8 77.6,78.8 70.5,82.8 		"/>
		<polygon class="st3" points="77.6,86.8 70.5,82.8 77.6,78.8 		"/>
		<polygon class="st3" points="70.6,90.8 77.6,86.8 70.5,82.8 70.5,90.8 		"/>
		<polygon class="st4" points="77.6,90.8 77.6,86.8 70.6,90.8 		"/>
		<polygon class="st3" points="63.5,4.4 63.5,6.7 67.4,4.4 		"/>
		<polygon class="st5" points="67.4,4.4 63.5,6.7 70.5,10.7 70.5,4.4 		"/>
		<polygon class="st5" points="63.5,6.7 70.5,10.7 63.5,14.7 		"/>
		<polygon class="st3" points="70.5,18.7 63.5,14.7 70.5,10.7 		"/>
		<polygon class="st3" points="63.5,14.7 70.5,18.7 63.5,22.7 		"/>
		<polygon class="st3" points="70.5,26.7 63.5,22.7 70.5,18.7 		"/>
		<polygon class="st3" points="63.5,22.7 70.5,26.7 63.5,30.7 		"/>
		<polygon class="st3" points="70.5,34.7 63.5,30.7 70.5,26.7 		"/>
		<polygon class="st3" points="63.5,30.7 70.5,34.7 63.5,38.7 		"/>
		<polygon class="st3" points="70.5,42.7 63.5,38.7 70.5,34.7 		"/>
		<polygon class="st5" points="63.5,38.7 70.5,42.7 63.5,46.7 		"/>
		<polygon class="st4" points="70.5,50.7 63.5,46.7 70.5,42.7 		"/>
		<polygon class="st5" points="63.5,46.7 70.5,50.7 63.5,54.7 		"/>
		<polygon class="st3" points="70.5,58.7 63.5,54.7 70.5,50.7 		"/>
		<polygon class="st5" points="63.5,54.7 70.5,58.7 63.5,62.7 		"/>
		<polygon class="st5" points="70.5,66.8 63.5,62.7 70.5,58.7 		"/>
		<polygon class="st6" points="63.5,62.7 70.5,66.8 63.5,70.8 		"/>
		<polygon class="st5" points="70.5,74.8 63.5,70.8 70.5,66.8 		"/>
		<polygon class="st3" points="63.5,70.8 70.5,74.8 63.5,78.8 		"/>
		<polygon class="st4" points="70.5,82.8 63.5,78.8 70.5,74.8 		"/>
		<polygon class="st4" points="63.5,78.8 70.5,82.8 63.5,86.8 		"/>
		<polygon class="st3" points="70.5,90.8 70.5,82.8 63.5,86.8 70.5,90.8 		"/>
		<polygon class="st6" points="70.5,90.8 63.5,86.8 63.5,90.8 		"/>
		<polygon class="st3" points="59.5,4.4 63.5,6.7 63.5,4.4 		"/>
		<polygon class="st6" points="56.4,4.4 56.4,10.7 63.5,6.7 59.5,4.4 		"/>
		<polygon class="st3" points="63.5,14.7 56.4,10.7 63.5,6.7 		"/>
		<polygon class="st6" points="56.4,10.7 63.5,14.7 56.4,18.7 		"/>
		<polygon class="st6" points="63.5,22.7 56.4,18.7 63.5,14.7 		"/>
		<polygon class="st6" points="56.4,18.7 63.5,22.7 56.4,26.7 		"/>
		<polygon class="st5" points="63.5,30.7 56.4,26.7 63.5,22.7 		"/>
		<polygon class="st5" points="56.4,26.7 63.5,30.7 56.4,34.7 		"/>
		<polygon class="st3" points="63.5,38.7 56.4,34.7 63.5,30.7 		"/>
		<polygon class="st6" points="56.4,34.7 63.5,38.7 56.4,42.7 		"/>
		<polygon class="st4" points="63.5,46.7 56.4,42.7 63.5,38.7 		"/>
		<polygon class="st3" points="56.4,42.7 63.5,46.7 56.4,50.7 		"/>
		<polygon class="st3" points="63.5,54.7 56.4,50.7 63.5,46.7 		"/>
		<polygon class="st3" points="56.4,50.7 63.5,54.7 56.4,58.7 		"/>
		<polygon class="st5" points="63.5,62.7 56.4,58.7 63.5,54.7 		"/>
		<polygon class="st5" points="56.4,58.7 63.5,62.7 56.4,66.8 		"/>
		<polygon class="st5" points="63.5,70.8 56.4,66.8 63.5,62.7 		"/>
		<polygon class="st6" points="56.4,66.8 63.5,70.8 56.4,74.8 		"/>
		<polygon class="st3" points="63.5,78.8 56.4,74.8 63.5,70.8 		"/>
		<polygon class="st4" points="56.4,74.8 63.5,78.8 56.4,82.8 		"/>
		<polygon class="st3" points="63.5,86.8 56.4,82.8 63.5,78.8 		"/>
		<polygon class="st3" points="56.4,90.8 63.5,86.8 56.4,82.8 56.4,90.8 		"/>
		<polygon class="st3" points="63.5,90.8 63.5,86.8 56.4,90.8 		"/>
		<polygon class="st4" points="49.3,4.4 49.3,6.7 53.3,4.4 		"/>
		<polygon class="st4" points="53.3,4.4 49.3,6.7 56.4,10.7 56.4,4.4 		"/>
		<polygon class="st3" points="49.3,6.7 56.4,10.7 49.3,14.7 		"/>
		<polygon class="st4" points="56.4,18.7 49.3,14.7 56.4,10.7 		"/>
		<polygon class="st4" points="49.3,14.7 56.4,18.7 49.3,22.7 		"/>
		<polygon class="st5" points="56.4,26.7 49.3,22.7 56.4,18.7 		"/>
		<polygon class="st5" points="49.3,22.7 56.4,26.7 49.3,30.7 		"/>
		<polygon class="st4" points="56.4,34.7 49.3,30.7 56.4,26.7 		"/>
		<polygon class="st3" points="49.3,30.7 56.4,34.7 49.3,38.7 		"/>
		<polygon class="st6" points="56.4,42.7 49.3,38.7 56.4,34.7 		"/>
		<polygon class="st5" points="49.3,38.7 56.4,42.7 49.3,46.7 		"/>
		<polygon class="st4" points="56.4,50.7 49.3,46.7 56.4,42.7 		"/>
		<polygon class="st3" points="49.3,46.7 56.4,50.7 49.3,54.7 		"/>
		<polygon class="st5" points="56.4,58.7 49.3,54.7 56.4,50.7 		"/>
		<polygon class="st5" points="49.3,54.7 56.4,58.7 49.3,62.7 		"/>
		<polygon class="st3" points="56.4,66.8 49.3,62.7 56.4,58.7 		"/>
		<polygon class="st6" points="49.3,62.7 56.4,66.8 49.3,70.8 		"/>
		<polygon class="st5" points="56.4,74.8 49.3,70.8 56.4,66.8 		"/>
		<polygon class="st6" points="49.3,70.8 56.4,74.8 49.3,78.8 		"/>
		<polygon class="st4" points="56.4,82.8 49.3,78.8 56.4,74.8 		"/>
		<polygon class="st3" points="49.3,78.8 56.4,82.8 49.3,86.8 		"/>
		<polygon class="st4" points="56.4,90.8 56.4,82.8 49.3,86.8 56.3,90.8 		"/>
		<polygon class="st5" points="56.3,90.8 49.3,86.8 49.3,90.8 		"/>
		<polygon class="st3" points="45.3,4.4 49.3,6.7 49.3,4.4 		"/>
		<polygon class="st3" points="42.3,4.4 42.3,10.7 49.3,6.7 45.3,4.4 		"/>
		<polygon class="st4" points="49.3,14.7 42.3,10.7 49.3,6.7 		"/>
		<polygon class="st5" points="42.3,10.7 49.3,14.7 42.3,18.7 		"/>
		<polygon class="st3" points="49.3,22.7 42.3,18.7 49.3,14.7 		"/>
		<polygon class="st3" points="42.3,18.7 49.3,22.7 42.3,26.7 		"/>
		<polygon class="st3" points="49.3,30.7 42.3,26.7 49.3,22.7 		"/>
		<polygon class="st3" points="42.3,26.7 49.3,30.7 42.3,34.7 		"/>
		<polygon class="st3" points="49.3,38.7 42.3,34.7 49.3,30.7 		"/>
		<polygon class="st3" points="42.3,34.7 49.3,38.7 42.3,42.7 		"/>
		<polygon class="st5" points="49.3,46.7 42.3,42.7 49.3,38.7 		"/>
		<polygon class="st4" points="42.3,42.7 49.3,46.7 42.3,50.7 		"/>
		<polygon class="st3" points="49.3,54.7 42.3,50.7 49.3,46.7 		"/>
		<polygon class="st4" points="42.3,50.7 49.3,54.7 42.3,58.7 		"/>
		<polygon class="st4" points="49.3,62.7 42.3,58.7 49.3,54.7 		"/>
		<polygon class="st3" points="42.3,58.7 49.3,62.7 42.3,66.8 		"/>
		<polygon class="st3" points="49.3,70.8 42.3,66.8 49.3,62.7 		"/>
		<polygon class="st4" points="42.3,66.8 49.3,70.8 42.3,74.8 		"/>
		<polygon class="st3" points="49.3,78.8 42.3,74.8 49.3,70.8 		"/>
		<polygon class="st3" points="42.3,74.8 49.3,78.8 42.3,82.8 		"/>
		<polygon class="st6" points="49.3,86.8 42.3,82.8 49.3,78.8 		"/>
		<polygon class="st3" points="42.3,90.8 49.3,86.8 42.3,82.8 42.3,90.8 		"/>
		<polygon class="st5" points="49.3,90.8 49.3,86.8 42.3,90.8 		"/>
		<polygon class="st3" points="35.2,4.4 35.2,6.7 39.2,4.4 		"/>
		<polygon class="st5" points="39.2,4.4 35.2,6.7 42.3,10.7 42.3,4.4 		"/>
		<polygon class="st5" points="35.2,6.7 42.3,10.7 35.2,14.7 		"/>
		<polygon class="st6" points="42.3,18.7 35.2,14.7 42.3,10.7 		"/>
		<polygon class="st6" points="35.2,14.7 42.3,18.7 35.2,22.7 		"/>
		<polygon class="st3" points="42.3,26.7 35.2,22.7 42.3,18.7 		"/>
		<polygon class="st5" points="35.2,22.7 42.3,26.7 35.2,30.7 		"/>
		<polygon class="st6" points="42.3,34.7 35.2,30.7 42.3,26.7 		"/>
		<polygon class="st3" points="35.2,30.7 42.3,34.7 35.2,38.7 		"/>
		<polygon class="st3" points="42.3,42.7 35.2,38.7 42.3,34.7 		"/>
		<polygon class="st5" points="35.2,38.7 42.3,42.7 35.2,46.7 		"/>
		<polygon class="st5" points="42.3,50.7 35.2,46.7 42.3,42.7 		"/>
		<polygon class="st3" points="35.2,46.7 42.3,50.7 35.2,54.7 		"/>
		<polygon class="st4" points="42.3,58.7 35.2,54.7 42.3,50.7 		"/>
		<polygon class="st5" points="35.2,54.7 42.3,58.7 35.2,62.7 		"/>
		<polygon class="st3" points="42.3,66.8 35.2,62.7 42.3,58.7 		"/>
		<polygon class="st5" points="35.2,62.7 42.3,66.8 35.2,70.8 		"/>
		<polygon class="st3" points="42.3,74.8 35.2,70.8 42.3,66.8 		"/>
		<polygon class="st3" points="35.2,70.8 42.3,74.8 35.2,78.8 		"/>
		<polygon class="st3" points="42.3,82.8 35.2,78.8 42.3,74.8 		"/>
		<polygon class="st4" points="35.2,78.8 42.3,82.8 35.2,86.8 		"/>
		<polygon class="st3" points="42.3,90.8 42.3,82.8 35.2,86.8 42.2,90.8 		"/>
		<polygon class="st3" points="42.2,90.8 35.2,86.8 35.2,90.8 		"/>
		<polygon class="st3" points="31.2,4.4 35.2,6.7 35.2,4.4 		"/>
		<polygon class="st5" points="28.1,4.4 28.1,10.7 35.2,6.7 31.2,4.4 		"/>
		<polygon class="st3" points="35.2,14.7 28.1,10.7 35.2,6.7 		"/>
		<polygon class="st5" points="28.1,10.7 35.2,14.7 28.1,18.7 		"/>
		<polygon class="st3" points="35.2,22.7 28.1,18.7 35.2,14.7 		"/>
		<polygon class="st3" points="28.1,18.7 35.2,22.7 28.1,26.7 		"/>
		<polygon class="st3" points="35.2,30.7 28.1,26.7 35.2,22.7 		"/>
		<polygon class="st6" points="28.1,26.7 35.2,30.7 28.1,34.7 		"/>
		<polygon class="st6" points="35.2,38.7 28.1,34.7 35.2,30.7 		"/>
		<polygon class="st3" points="28.1,34.7 35.2,38.7 28.1,42.7 		"/>
		<polygon class="st6" points="35.2,46.7 28.1,42.7 35.2,38.7 		"/>
		<polygon class="st6" points="28.1,42.7 35.2,46.7 28.1,50.7 		"/>
		<polygon class="st4" points="35.2,54.7 28.1,50.7 35.2,46.7 		"/>
		<polygon class="st5" points="28.1,50.7 35.2,54.7 28.1,58.7 		"/>
		<polygon class="st6" points="35.2,62.7 28.1,58.7 35.2,54.7 		"/>
		<polygon class="st4" points="28.1,58.7 35.2,62.7 28.1,66.8 		"/>
		<polygon class="st4" points="35.2,70.8 28.1,66.8 35.2,62.7 		"/>
		<polygon class="st3" points="28.1,66.8 35.2,70.8 28.1,74.8 		"/>
		<polygon class="st3" points="35.2,78.8 28.1,74.8 35.2,70.8 		"/>
		<polygon class="st3" points="28.1,74.8 35.2,78.8 28.1,82.8 		"/>
		<polygon class="st4" points="35.2,86.8 28.1,82.8 35.2,78.8 		"/>
		<polygon class="st4" points="28.2,90.8 35.2,86.8 28.1,82.8 28.1,90.8 		"/>
		<polygon class="st4" points="35.2,90.8 35.2,86.8 28.2,90.8 		"/>
		<polygon class="st5" points="21.1,4.4 21.1,6.7 25,4.4 		"/>
		<polygon class="st5" points="25,4.4 21.1,6.7 28.1,10.7 28.1,4.4 		"/>
		<polygon class="st3" points="21.1,6.7 28.1,10.7 21.1,14.7 		"/>
		<polygon class="st5" points="28.1,18.7 21.1,14.7 28.1,10.7 		"/>
		<polygon class="st5" points="21.1,14.7 28.1,18.7 21.1,22.7 		"/>
		<polygon class="st3" points="28.1,26.7 21.1,22.7 28.1,18.7 		"/>
		<polygon class="st6" points="21.1,22.7 28.1,26.7 21.1,30.7 		"/>
		<polygon class="st4" points="28.1,34.7 21.1,30.7 28.1,26.7 		"/>
		<polygon class="st5" points="21.1,30.7 28.1,34.7 21.1,38.7 		"/>
		<polygon class="st6" points="28.1,42.7 21.1,38.7 28.1,34.7 		"/>
		<polygon class="st3" points="21.1,38.7 28.1,42.7 21.1,46.7 		"/>
		<polygon class="st6" points="28.1,50.7 21.1,46.7 28.1,42.7 		"/>
		<polygon class="st3" points="21.1,46.7 28.1,50.7 21.1,54.7 		"/>
		<polygon class="st3" points="28.1,58.7 21.1,54.7 28.1,50.7 		"/>
		<polygon class="st3" points="21.1,54.7 28.1,58.7 21.1,62.7 		"/>
		<polygon class="st3" points="28.1,66.8 21.1,62.7 28.1,58.7 		"/>
		<polygon class="st4" points="21.1,62.7 28.1,66.8 21.1,70.8 		"/>
		<polygon class="st3" points="28.1,74.8 21.1,70.8 28.1,66.8 		"/>
		<polygon class="st3" points="21.1,70.8 28.1,74.8 21.1,78.8 		"/>
		<polygon class="st3" points="28.1,82.8 21.1,78.8 28.1,74.8 		"/>
		<polygon class="st3" points="21.1,78.8 28.1,82.8 21.1,86.8 		"/>
		<polygon class="st5" points="28.1,90.8 28.1,82.8 21.1,86.8 28.1,90.8 		"/>
		<polygon class="st3" points="28.1,89.6 21.1,86.8 21.1,89.6 		"/>
		<polygon class="st5" points="18,4.9 21.1,6.7 21.1,4.4 		"/>
		<polygon class="st5" points="14.5,6.4 14,10.7 21.1,6.7 18.2,4.8 		"/>
		<polygon class="st3" points="21.1,14.7 14,10.7 21.1,6.7 		"/>
		<polygon class="st5" points="14,10.7 21.1,14.7 14,18.7 		"/>
		<polygon class="st3" points="21.1,22.7 14,18.7 21.1,14.7 		"/>
		<polygon class="st3" points="14,18.7 21.1,22.7 14,26.7 		"/>
		<polygon class="st3" points="21.1,30.7 14,26.7 21.1,22.7 		"/>
		<polygon class="st3" points="14,26.7 21.1,30.7 14,34.7 		"/>
		<polygon class="st6" points="21.1,38.7 14,34.7 21.1,30.7 		"/>
		<polygon class="st4" points="14,34.7 21.1,38.7 14,42.7 		"/>
		<polygon class="st5" points="21.1,46.7 14,42.7 21.1,38.7 		"/>
		<polygon class="st3" points="14,42.7 21.1,46.7 14,50.7 		"/>
		<polygon class="st3" points="21.1,54.7 14,50.7 21.1,46.7 		"/>
		<polygon class="st5" points="14,50.7 21.1,54.7 14,58.7 		"/>
		<polygon class="st5" points="21.1,62.7 14,58.7 21.1,54.7 		"/>
		<polygon class="st4" points="14,58.7 21.1,62.7 14,66.8 		"/>
		<polygon class="st5" points="21.1,70.8 14,66.8 21.1,62.7 		"/>
		<polygon class="st5" points="14,66.8 21.1,70.8 14,74.8 		"/>
		<polygon class="st3" points="21.1,78.8 14,74.8 21.1,70.8 		"/>
		<polygon class="st3" points="14,74.8 21.1,78.8 14,82.8 		"/>
		<polygon class="st6" points="21.1,86.8 14,82.8 21.1,78.8 		"/>
		<polygon class="st6" points="14.5,88.1 21.1,86.8 14,82.8 13.8,87.7 		"/>
		<path class="st5" d="M21.1,89.5v-2.8l-4.3,2.3c0,0,1.6,0.4,2.1,0.5C19.4,89.6,21.1,89.5,21.1,89.5z"/>
		<path class="st4" d="M14,18.7l-6.5-3.8c0,0,0.8-2.7,1.3-3.4c0.5-0.8,1.6-2.1,2.3-2.8c0.7-0.8,3.4-2.6,3.4-2.6L14,18.7z"/>
		<polygon class="st3" points="7.2,14.7 14,18.7 6.9,22.7 		"/>
		<polygon class="st3" points="14,26.7 6.9,22.7 14,18.7 		"/>
		<polygon class="st5" points="6.9,22.7 14,26.7 6.9,30.7 		"/>
		<polygon class="st5" points="14,34.7 6.9,30.7 14,26.7 		"/>
		<polygon class="st3" points="6.9,30.7 14,34.7 6.9,38.7 		"/>
		<polygon class="st3" points="14,42.7 6.9,38.7 14,34.7 		"/>
		<polygon class="st5" points="6.9,38.7 14,42.7 6.9,46.7 		"/>
		<polygon class="st3" points="14,50.7 6.9,46.7 14,42.7 		"/>
		<polygon class="st6" points="6.9,46.7 14,50.7 6.9,54.7 		"/>
		<polygon class="st4" points="14,58.7 6.9,54.7 14,50.7 		"/>
		<polygon class="st3" points="6.9,54.7 14,58.7 6.9,62.7 		"/>
		<polygon class="st6" points="14,66.8 6.9,62.7 14,58.7 		"/>
		<polygon class="st3" points="6.9,62.7 14,66.8 6.9,70.8 		"/>
		<polygon class="st5" points="14,74.8 6.9,70.8 14,66.8 		"/>
		<polygon class="st5" points="6.9,70.8 14,74.8 6.9,78.8 		"/>
		<polygon class="st5" points="14,82.8 6.9,78.8 14,74.8 		"/>
		<polygon class="st5" points="6.9,78.8 14,82.8 9,83.7 		"/>
		<path class="st4" d="M13.8,87.7l0.2-5l-4.6,1c0,0,0.8,1,1.3,1.6C11.6,86.4,13.8,87.7,13.8,87.7z"/>
	</g>
	<g>
		<polygon class="st3" points="83.6,6.2 84.2,10.7 87.4,8.8 85.5,6.9 		"/>
		<polygon class="st4" points="91.2,14.7 84.2,10.7 87.4,8.8 89.4,10.7 		"/>
		<polygon class="st5" points="84.2,10.7 91.2,14.7 84.2,18.7 		"/>
		<polygon class="st4" points="91.2,22.7 84.2,18.7 91.2,14.7 		"/>
		<polygon class="st3" points="84.2,18.7 91.2,22.7 84.2,26.7 		"/>
		<polygon class="st6" points="91.2,30.7 84.2,26.7 91.2,22.7 		"/>
		<polygon class="st3" points="84.2,26.7 91.2,30.7 84.2,34.7 		"/>
		<polygon class="st3" points="91.2,38.7 84.2,34.7 91.2,30.7 		"/>
		<polygon class="st3" points="84.2,34.7 91.2,38.7 84.2,42.7 		"/>
		<polygon class="st6" points="91.2,46.7 84.2,42.7 91.2,38.7 		"/>
		<polygon class="st3" points="84.2,42.7 91.2,46.7 84.2,50.7 		"/>
		<polygon class="st4" points="91.2,54.7 84.2,50.7 91.2,46.7 		"/>
		<polygon class="st3" points="84.2,50.7 91.2,54.7 84.2,58.7 		"/>
		<polygon class="st5" points="91.2,62.7 84.2,58.7 91.2,54.7 		"/>
		<polygon class="st3" points="84.2,58.7 91.2,62.7 84.2,66.8 		"/>
		<polygon class="st5" points="91.2,70.8 84.2,66.8 91.2,62.7 		"/>
		<polygon class="st3" points="84.2,66.8 91.2,70.8 84.2,74.8 		"/>
		<polygon class="st3" points="91.2,78.8 84.2,74.8 91.2,70.8 		"/>
		<polygon class="st4" points="84.2,74.8 91.2,78.8 84.2,82.8 		"/>
		<path class="st6" d="M88.2,85.1l-4-2.3l7-4c0,0-0.8,2.8-1.3,3.7C89.6,83.2,88.2,85.1,88.2,85.1z"/>
		<polygon class="st5" points="84.2,88 86.2,87 88.2,85.1 84.2,82.8 84.2,88 		"/>
		<path class="st3" d="M79.1,5L74,4.9l10.2,5.8l-0.6-4.5c0,0-1.1-0.5-1.8-0.9C81.2,5,79.1,5,79.1,5z"/>
		<polygon class="st6" points="77.2,6.7 84.2,10.7 77.2,14.7 		"/>
		<polygon class="st6" points="84.2,18.7 77.2,14.7 84.2,10.7 		"/>
		<polygon class="st5" points="77.2,14.7 84.2,18.7 77.2,22.7 		"/>
		<polygon class="st3" points="84.2,26.7 77.2,22.7 84.2,18.7 		"/>
		<polygon class="st5" points="77.2,22.7 84.2,26.7 77.2,30.7 		"/>
		<polygon class="st5" points="84.2,34.7 77.2,30.7 84.2,26.7 		"/>
		<polygon class="st5" points="77.2,30.7 84.2,34.7 77.2,38.7 		"/>
		<polygon class="st4" points="84.2,42.7 77.2,38.7 84.2,34.7 		"/>
		<polygon class="st4" points="77.2,38.7 84.2,42.7 77.2,46.7 		"/>
		<polygon class="st3" points="84.2,50.7 77.2,46.7 84.2,42.7 		"/>
		<polygon class="st4" points="77.2,46.7 84.2,50.7 77.2,54.7 		"/>
		<polygon class="st3" points="84.2,58.7 77.2,54.7 84.2,50.7 		"/>
		<polygon class="st4" points="77.2,54.7 84.2,58.7 77.2,62.7 		"/>
		<polygon class="st3" points="84.2,66.8 77.2,62.7 84.2,58.7 		"/>
		<polygon class="st3" points="77.2,62.7 84.2,66.8 77.2,70.8 		"/>
		<polygon class="st3" points="84.2,74.8 77.2,70.8 84.2,66.8 		"/>
		<polygon class="st3" points="77.2,70.8 84.2,74.8 77.2,78.8 		"/>
		<polygon class="st3" points="84.2,82.8 77.2,78.8 84.2,74.8 		"/>
		<polygon class="st5" points="77.2,78.8 84.2,82.8 77.2,86.8 		"/>
		<polygon class="st3" points="84.2,88 84.2,82.8 77.2,86.8 84.2,88 		"/>
		<polygon class="st4" points="84.2,88 77.2,86.8 77.2,89.6 80.7,89.3 		"/>
		<polygon class="st4" points="70.1,4.4 70.1,10.7 77.2,6.7 73.2,4.4 		"/>
		<polygon class="st4" points="77.2,14.7 70.1,10.7 77.2,6.7 		"/>
		<polygon class="st3" points="70.1,10.7 77.2,14.7 70.1,18.7 		"/>
		<polygon class="st4" points="77.2,22.7 70.1,18.7 77.2,14.7 		"/>
		<polygon class="st5" points="70.1,18.7 77.2,22.7 70.1,26.7 		"/>
		<polygon class="st5" points="77.2,30.7 70.1,26.7 77.2,22.7 		"/>
		<polygon class="st5" points="70.1,26.7 77.2,30.7 70.1,34.7 		"/>
		<polygon class="st4" points="77.2,38.7 70.1,34.7 77.2,30.7 		"/>
		<polygon class="st3" points="70.1,34.7 77.2,38.7 70.1,42.7 		"/>
		<polygon class="st6" points="77.2,46.7 70.1,42.7 77.2,38.7 		"/>
		<polygon class="st3" points="70.1,42.7 77.2,46.7 70.1,50.7 		"/>
		<polygon class="st3" points="77.2,54.7 70.1,50.7 77.2,46.7 		"/>
		<polygon class="st3" points="70.1,50.7 77.2,54.7 70.1,58.7 		"/>
		<polygon class="st3" points="77.2,62.7 70.1,58.7 77.2,54.7 		"/>
		<polygon class="st3" points="70.1,58.7 77.2,62.7 70.1,66.8 		"/>
		<polygon class="st3" points="77.2,70.8 70.1,66.8 77.2,62.7 		"/>
		<polygon class="st3" points="70.1,66.8 77.2,70.8 70.1,74.8 		"/>
		<polygon class="st6" points="77.2,78.8 70.1,74.8 77.2,70.8 		"/>
		<polygon class="st3" points="70.1,74.8 77.2,78.8 70.1,82.8 		"/>
		<polygon class="st3" points="77.2,86.8 70.1,82.8 77.2,78.8 		"/>
		<polygon class="st3" points="70.2,90.8 77.2,86.8 70.1,82.8 70.1,90.8 		"/>
		<polygon class="st4" points="77.2,90.8 77.2,86.8 70.2,90.8 		"/>
		<polygon class="st3" points="63.1,4.4 63.1,6.7 67.1,4.4 		"/>
		<polygon class="st5" points="67.1,4.4 63.1,6.7 70.1,10.7 70.1,4.4 		"/>
		<polygon class="st5" points="63.1,6.7 70.1,10.7 63.1,14.7 		"/>
		<polygon class="st3" points="70.1,18.7 63.1,14.7 70.1,10.7 		"/>
		<polygon class="st3" points="63.1,14.7 70.1,18.7 63.1,22.7 		"/>
		<polygon class="st3" points="70.1,26.7 63.1,22.7 70.1,18.7 		"/>
		<polygon class="st3" points="63.1,22.7 70.1,26.7 63.1,30.7 		"/>
		<polygon class="st3" points="70.1,34.7 63.1,30.7 70.1,26.7 		"/>
		<polygon class="st3" points="63.1,30.7 70.1,34.7 63.1,38.7 		"/>
		<polygon class="st3" points="70.1,42.7 63.1,38.7 70.1,34.7 		"/>
		<polygon class="st5" points="63.1,38.7 70.1,42.7 63.1,46.7 		"/>
		<polygon class="st4" points="70.1,50.7 63.1,46.7 70.1,42.7 		"/>
		<polygon class="st5" points="63.1,46.7 70.1,50.7 63.1,54.7 		"/>
		<polygon class="st3" points="70.1,58.7 63.1,54.7 70.1,50.7 		"/>
		<polygon class="st5" points="63.1,54.7 70.1,58.7 63.1,62.7 		"/>
		<polygon class="st5" points="70.1,66.8 63.1,62.7 70.1,58.7 		"/>
		<polygon class="st6" points="63.1,62.7 70.1,66.8 63.1,70.8 		"/>
		<polygon class="st5" points="70.1,74.8 63.1,70.8 70.1,66.8 		"/>
		<polygon class="st3" points="63.1,70.8 70.1,74.8 63.1,78.8 		"/>
		<polygon class="st4" points="70.1,82.8 63.1,78.8 70.1,74.8 		"/>
		<polygon class="st4" points="63.1,78.8 70.1,82.8 63.1,86.8 		"/>
		<polygon class="st3" points="70.1,90.8 70.1,82.8 63.1,86.8 70.1,90.8 		"/>
		<polygon class="st6" points="70.1,90.8 63.1,86.8 63.1,90.8 		"/>
		<polygon class="st3" points="59.2,4.4 63.1,6.7 63.1,4.4 		"/>
		<polygon class="st6" points="56.1,4.4 56.1,10.7 63.1,6.7 59.2,4.4 		"/>
		<polygon class="st3" points="63.1,14.7 56.1,10.7 63.1,6.7 		"/>
		<polygon class="st6" points="56.1,10.7 63.1,14.7 56.1,18.7 		"/>
		<polygon class="st6" points="63.1,22.7 56.1,18.7 63.1,14.7 		"/>
		<polygon class="st6" points="56.1,18.7 63.1,22.7 56.1,26.7 		"/>
		<polygon class="st5" points="63.1,30.7 56.1,26.7 63.1,22.7 		"/>
		<polygon class="st5" points="56.1,26.7 63.1,30.7 56.1,34.7 		"/>
		<polygon class="st3" points="63.1,38.7 56.1,34.7 63.1,30.7 		"/>
		<polygon class="st6" points="56.1,34.7 63.1,38.7 56.1,42.7 		"/>
		<polygon class="st4" points="63.1,46.7 56.1,42.7 63.1,38.7 		"/>
		<polygon class="st3" points="56.1,42.7 63.1,46.7 56.1,50.7 		"/>
		<polygon class="st3" points="63.1,54.7 56.1,50.7 63.1,46.7 		"/>
		<polygon class="st3" points="56.1,50.7 63.1,54.7 56.1,58.7 		"/>
		<polygon class="st5" points="63.1,62.7 56.1,58.7 63.1,54.7 		"/>
		<polygon class="st5" points="56.1,58.7 63.1,62.7 56.1,66.8 		"/>
		<polygon class="st5" points="63.1,70.8 56.1,66.8 63.1,62.7 		"/>
		<polygon class="st6" points="56.1,66.8 63.1,70.8 56.1,74.8 		"/>
		<polygon class="st3" points="63.1,78.8 56.1,74.8 63.1,70.8 		"/>
		<polygon class="st4" points="56.1,74.8 63.1,78.8 56.1,82.8 		"/>
		<polygon class="st3" points="63.1,86.8 56.1,82.8 63.1,78.8 		"/>
		<polygon class="st3" points="56.1,90.8 63.1,86.8 56.1,82.8 56.1,90.8 		"/>
		<polygon class="st3" points="63.1,90.8 63.1,86.8 56.1,90.8 		"/>
		<polygon class="st4" points="49.1,4.4 49.1,6.7 53,4.4 		"/>
		<polygon class="st4" points="53,4.4 49.1,6.7 56.1,10.7 56.1,4.4 		"/>
		<polygon class="st3" points="49.1,6.7 56.1,10.7 49.1,14.7 		"/>
		<polygon class="st4" points="56.1,18.7 49.1,14.7 56.1,10.7 		"/>
		<polygon class="st4" points="49.1,14.7 56.1,18.7 49.1,22.7 		"/>
		<polygon class="st5" points="56.1,26.7 49.1,22.7 56.1,18.7 		"/>
		<polygon class="st5" points="49.1,22.7 56.1,26.7 49.1,30.7 		"/>
		<polygon class="st4" points="56.1,34.7 49.1,30.7 56.1,26.7 		"/>
		<polygon class="st3" points="49.1,30.7 56.1,34.7 49.1,38.7 		"/>
		<polygon class="st6" points="56.1,42.7 49.1,38.7 56.1,34.7 		"/>
		<polygon class="st5" points="49.1,38.7 56.1,42.7 49.1,46.7 		"/>
		<polygon class="st4" points="56.1,50.7 49.1,46.7 56.1,42.7 		"/>
		<polygon class="st3" points="49.1,46.7 56.1,50.7 49.1,54.7 		"/>
		<polygon class="st5" points="56.1,58.7 49.1,54.7 56.1,50.7 		"/>
		<polygon class="st5" points="49.1,54.7 56.1,58.7 49.1,62.7 		"/>
		<polygon class="st3" points="56.1,66.8 49.1,62.7 56.1,58.7 		"/>
		<polygon class="st6" points="49.1,62.7 56.1,66.8 49.1,70.8 		"/>
		<polygon class="st5" points="56.1,74.8 49.1,70.8 56.1,66.8 		"/>
		<polygon class="st6" points="49.1,70.8 56.1,74.8 49.1,78.8 		"/>
		<polygon class="st4" points="56.1,82.8 49.1,78.8 56.1,74.8 		"/>
		<polygon class="st3" points="49.1,78.8 56.1,82.8 49.1,86.8 		"/>
		<polygon class="st4" points="56.1,90.8 56.1,82.8 49.1,86.8 56.1,90.8 		"/>
		<polygon class="st5" points="56.1,90.8 49.1,86.8 49.1,90.8 		"/>
		<polygon class="st3" points="45.1,4.4 49.1,6.7 49.1,4.4 		"/>
		<polygon class="st3" points="42.1,4.4 42.1,10.7 49.1,6.7 45.1,4.4 		"/>
		<polygon class="st4" points="49.1,14.7 42.1,10.7 49.1,6.7 		"/>
		<polygon class="st5" points="42.1,10.7 49.1,14.7 42.1,18.7 		"/>
		<polygon class="st3" points="49.1,22.7 42.1,18.7 49.1,14.7 		"/>
		<polygon class="st3" points="42.1,18.7 49.1,22.7 42.1,26.7 		"/>
		<polygon class="st3" points="49.1,30.7 42.1,26.7 49.1,22.7 		"/>
		<polygon class="st3" points="42.1,26.7 49.1,30.7 42.1,34.7 		"/>
		<polygon class="st3" points="49.1,38.7 42.1,34.7 49.1,30.7 		"/>
		<polygon class="st3" points="42.1,34.7 49.1,38.7 42.1,42.7 		"/>
		<polygon class="st5" points="49.1,46.7 42.1,42.7 49.1,38.7 		"/>
		<polygon class="st4" points="42.1,42.7 49.1,46.7 42.1,50.7 		"/>
		<polygon class="st3" points="49.1,54.7 42.1,50.7 49.1,46.7 		"/>
		<polygon class="st4" points="42.1,50.7 49.1,54.7 42.1,58.7 		"/>
		<polygon class="st4" points="49.1,62.7 42.1,58.7 49.1,54.7 		"/>
		<polygon class="st3" points="42.1,58.7 49.1,62.7 42.1,66.8 		"/>
		<polygon class="st3" points="49.1,70.8 42.1,66.8 49.1,62.7 		"/>
		<polygon class="st4" points="42.1,66.8 49.1,70.8 42.1,74.8 		"/>
		<polygon class="st3" points="49.1,78.8 42.1,74.8 49.1,70.8 		"/>
		<polygon class="st3" points="42.1,74.8 49.1,78.8 42.1,82.8 		"/>
		<polygon class="st6" points="49.1,86.8 42.1,82.8 49.1,78.8 		"/>
		<polygon class="st3" points="42.1,90.8 49.1,86.8 42.1,82.8 42.1,90.8 		"/>
		<polygon class="st5" points="49.1,90.8 49.1,86.8 42.1,90.8 		"/>
		<polygon class="st3" points="35,4.4 35,6.7 39,4.4 		"/>
		<polygon class="st5" points="39,4.4 35,6.7 42.1,10.7 42.1,4.4 		"/>
		<polygon class="st5" points="35,6.7 42.1,10.7 35,14.7 		"/>
		<polygon class="st6" points="42.1,18.7 35,14.7 42.1,10.7 		"/>
		<polygon class="st6" points="35,14.7 42.1,18.7 35,22.7 		"/>
		<polygon class="st3" points="42.1,26.7 35,22.7 42.1,18.7 		"/>
		<polygon class="st5" points="35,22.7 42.1,26.7 35,30.7 		"/>
		<polygon class="st6" points="42.1,34.7 35,30.7 42.1,26.7 		"/>
		<polygon class="st3" points="35,30.7 42.1,34.7 35,38.7 		"/>
		<polygon class="st3" points="42.1,42.7 35,38.7 42.1,34.7 		"/>
		<polygon class="st5" points="35,38.7 42.1,42.7 35,46.7 		"/>
		<polygon class="st5" points="42.1,50.7 35,46.7 42.1,42.7 		"/>
		<polygon class="st3" points="35,46.7 42.1,50.7 35,54.7 		"/>
		<polygon class="st4" points="42.1,58.7 35,54.7 42.1,50.7 		"/>
		<polygon class="st5" points="35,54.7 42.1,58.7 35,62.7 		"/>
		<polygon class="st3" points="42.1,66.8 35,62.7 42.1,58.7 		"/>
		<polygon class="st5" points="35,62.7 42.1,66.8 35,70.8 		"/>
		<polygon class="st3" points="42.1,74.8 35,70.8 42.1,66.8 		"/>
		<polygon class="st3" points="35,70.8 42.1,74.8 35,78.8 		"/>
		<polygon class="st3" points="42.1,82.8 35,78.8 42.1,74.8 		"/>
		<polygon class="st4" points="35,78.8 42.1,82.8 35,86.8 		"/>
		<polygon class="st3" points="42.1,90.8 42.1,82.8 35,86.8 42,90.8 		"/>
		<polygon class="st3" points="42,90.8 35,86.8 35,90.8 		"/>
		<polygon class="st3" points="31.1,4.4 35,6.7 35,4.4 		"/>
		<polygon class="st5" points="28,4.4 28,10.7 35,6.7 31.1,4.4 		"/>
		<polygon class="st3" points="35,14.7 28,10.7 35,6.7 		"/>
		<polygon class="st5" points="28,10.7 35,14.7 28,18.7 		"/>
		<polygon class="st3" points="35,22.7 28,18.7 35,14.7 		"/>
		<polygon class="st3" points="28,18.7 35,22.7 28,26.7 		"/>
		<polygon class="st3" points="35,30.7 28,26.7 35,22.7 		"/>
		<polygon class="st6" points="28,26.7 35,30.7 28,34.7 		"/>
		<polygon class="st6" points="35,38.7 28,34.7 35,30.7 		"/>
		<polygon class="st3" points="28,34.7 35,38.7 28,42.7 		"/>
		<polygon class="st6" points="35,46.7 28,42.7 35,38.7 		"/>
		<polygon class="st6" points="28,42.7 35,46.7 28,50.7 		"/>
		<polygon class="st4" points="35,54.7 28,50.7 35,46.7 		"/>
		<polygon class="st5" points="28,50.7 35,54.7 28,58.7 		"/>
		<polygon class="st6" points="35,62.7 28,58.7 35,54.7 		"/>
		<polygon class="st4" points="28,58.7 35,62.7 28,66.8 		"/>
		<polygon class="st4" points="35,70.8 28,66.8 35,62.7 		"/>
		<polygon class="st3" points="28,66.8 35,70.8 28,74.8 		"/>
		<polygon class="st3" points="35,78.8 28,74.8 35,70.8 		"/>
		<polygon class="st3" points="28,74.8 35,78.8 28,82.8 		"/>
		<polygon class="st4" points="35,86.8 28,82.8 35,78.8 		"/>
		<polygon class="st4" points="28,90.8 35,86.8 28,82.8 28,90.8 		"/>
		<polygon class="st4" points="35,90.8 35,86.8 28,90.8 		"/>
		<polygon class="st5" points="21,4.4 21,6.7 24.9,4.4 		"/>
		<polygon class="st5" points="24.9,4.4 21,6.7 28,10.7 28,4.4 		"/>
		<polygon class="st3" points="21,6.7 28,10.7 21,14.7 		"/>
		<polygon class="st5" points="28,18.7 21,14.7 28,10.7 		"/>
		<polygon class="st5" points="21,14.7 28,18.7 21,22.7 		"/>
		<polygon class="st3" points="28,26.7 21,22.7 28,18.7 		"/>
		<polygon class="st6" points="21,22.7 28,26.7 21,30.7 		"/>
		<polygon class="st4" points="28,34.7 21,30.7 28,26.7 		"/>
		<polygon class="st5" points="21,30.7 28,34.7 21,38.7 		"/>
		<polygon class="st6" points="28,42.7 21,38.7 28,34.7 		"/>
		<polygon class="st3" points="21,38.7 28,42.7 21,46.7 		"/>
		<polygon class="st6" points="28,50.7 21,46.7 28,42.7 		"/>
		<polygon class="st3" points="21,46.7 28,50.7 21,54.7 		"/>
		<polygon class="st3" points="28,58.7 21,54.7 28,50.7 		"/>
		<polygon class="st3" points="21,54.7 28,58.7 21,62.7 		"/>
		<polygon class="st3" points="28,66.8 21,62.7 28,58.7 		"/>
		<polygon class="st4" points="21,62.7 28,66.8 21,70.8 		"/>
		<polygon class="st3" points="28,74.8 21,70.8 28,66.8 		"/>
		<polygon class="st3" points="21,70.8 28,74.8 21,78.8 		"/>
		<polygon class="st3" points="28,82.8 21,78.8 28,74.8 		"/>
		<polygon class="st3" points="21,78.8 28,82.8 21,86.8 		"/>
		<polygon class="st5" points="28,90.8 28,82.8 21,86.8 28,90.8 		"/>
		<polygon class="st3" points="28,89.6 21,86.8 21,89.6 		"/>
		<polygon class="st5" points="17.9,4.9 21,6.7 21,4.4 		"/>
		<polygon class="st5" points="14.5,6.4 14,10.7 21,6.7 18.2,4.8 		"/>
		<polygon class="st3" points="21,14.7 14,10.7 21,6.7 		"/>
		<polygon class="st5" points="14,10.7 21,14.7 14,18.7 		"/>
		<polygon class="st3" points="21,22.7 14,18.7 21,14.7 		"/>
		<polygon class="st3" points="14,18.7 21,22.7 14,26.7 		"/>
		<polygon class="st3" points="21,30.7 14,26.7 21,22.7 		"/>
		<polygon class="st3" points="14,26.7 21,30.7 14,34.7 		"/>
		<polygon class="st6" points="21,38.7 14,34.7 21,30.7 		"/>
		<polygon class="st4" points="14,34.7 21,38.7 14,42.7 		"/>
		<polygon class="st5" points="21,46.7 14,42.7 21,38.7 		"/>
		<polygon class="st3" points="14,42.7 21,46.7 14,50.7 		"/>
		<polygon class="st3" points="21,54.7 14,50.7 21,46.7 		"/>
		<polygon class="st5" points="14,50.7 21,54.7 14,58.7 		"/>
		<polygon class="st5" points="21,62.7 14,58.7 21,54.7 		"/>
		<polygon class="st4" points="14,58.7 21,62.7 14,66.8 		"/>
		<polygon class="st5" points="21,70.8 14,66.8 21,62.7 		"/>
		<polygon class="st5" points="14,66.8 21,70.8 14,74.8 		"/>
		<polygon class="st3" points="21,78.8 14,74.8 21,70.8 		"/>
		<polygon class="st3" points="14,74.8 21,78.8 14,82.8 		"/>
		<polygon class="st6" points="21,86.8 14,82.8 21,78.8 		"/>
		<polygon class="st6" points="14.5,88.1 21,86.8 14,82.8 13.7,87.7 		"/>
		<path class="st5" d="M21,89.5v-2.8l-4.3,2.3c0,0,1.6,0.4,2.1,0.5C19.3,89.6,21,89.5,21,89.5z"/>
		<path class="st4" d="M14,18.7l-6.5-3.8c0,0,0.8-2.7,1.3-3.4c0.5-0.8,1.6-2.1,2.3-2.8c0.7-0.8,3.4-2.6,3.4-2.6L14,18.7z"/>
		<polygon class="st3" points="7.2,14.7 14,18.7 6.9,22.7 		"/>
		<polygon class="st3" points="14,26.7 6.9,22.7 14,18.7 		"/>
		<polygon class="st5" points="6.9,22.7 14,26.7 6.9,30.7 		"/>
		<polygon class="st5" points="14,34.7 6.9,30.7 14,26.7 		"/>
		<polygon class="st3" points="6.9,30.7 14,34.7 6.9,38.7 		"/>
		<polygon class="st3" points="14,42.7 6.9,38.7 14,34.7 		"/>
		<polygon class="st5" points="6.9,38.7 14,42.7 6.9,46.7 		"/>
		<polygon class="st3" points="14,50.7 6.9,46.7 14,42.7 		"/>
		<polygon class="st6" points="6.9,46.7 14,50.7 6.9,54.7 		"/>
		<polygon class="st4" points="14,58.7 6.9,54.7 14,50.7 		"/>
		<polygon class="st3" points="6.9,54.7 14,58.7 6.9,62.7 		"/>
		<polygon class="st6" points="14,66.8 6.9,62.7 14,58.7 		"/>
		<polygon class="st3" points="6.9,62.7 14,66.8 6.9,70.8 		"/>
		<polygon class="st5" points="14,74.8 6.9,70.8 14,66.8 		"/>
		<polygon class="st5" points="6.9,70.8 14,74.8 6.9,78.8 		"/>
		<polygon class="st5" points="14,82.8 6.9,78.8 14,74.8 		"/>
		<polygon class="st5" points="6.9,78.8 14,82.8 9,83.7 		"/>
		<path class="st4" d="M13.7,87.7l0.2-5l-4.6,1c0,0,0.8,1,1.3,1.6C11.5,86.4,13.7,87.7,13.7,87.7z"/>
	</g>
	<g>
		<path class="st7" d="M34.9,78.3c0,8.5-5.1,13.3-13.5,13.3c-7.2,0-14.8-3.1-16.7-9c-0.9-2.6,1.2-5.4,3.9-6c2.8-0.5,4.7,1.4,6,4
			c1.4,2.6,2.6,3.1,5.1,3.1c2.9,0,5.2-2.3,5.2-5.3c0-2.9-2.3-5.2-5.2-5.2c-4.1,0-7.9-1.6-10.8-4.5c-3-2.9-4.5-6.7-4.5-10.8
			c0-8.5,6.8-15.3,15.3-15.3c7.1,0,13.7,4.9,14.7,10.6c0.5,2.8-1.1,5.5-3.9,6c-2.8,0.6-5.1-1.2-6-3.8c-0.6-1.6-2.3-2.8-4.8-2.8
			c-2.9,0-5.2,2.3-5.2,5.2s2.3,5.2,5.2,5.2c4.1,0,7.9,1.6,10.8,4.5C33.3,70.5,34.9,74.2,34.9,78.3z"/>
	</g>
	<g>
		<g>
			<path class="st8" d="M92.7,60.9v22.2c0,3.3-2.4,5.7-5.7,5.7c-2.3,0-5.4-2.4-5.4-5.7c-4.9,4.1-10.3,5.7-16.8,5.7
				c-16,0-28.7-11.9-28.7-27.9c0-16,12.7-28.7,28.7-28.7C80.8,32.2,92.7,44.9,92.7,60.9z M81.6,60.9c0-9.5-7.3-17.6-16.8-17.6
				c-9.5,0-17.6,8.1-17.6,17.6c0,9.5,8.1,16.8,17.6,16.8C74.3,77.7,81.6,70.5,81.6,60.9z"/>
		</g>
	</g>
	<g class="st9">
		<polygon class="st10" points="82,44.3 89.1,48.3 82,52.3 		"/>
		<polygon class="st10" points="89.8,56.8 82.7,52.8 89.8,48.8 		"/>
		<polygon class="st11" points="88.1,52.3 92.1,55.5 88.1,60.3 		"/>
		<polygon class="st11" points="90.5,63.5 83.5,59.5 90.5,55.5 		"/>
		<polygon class="st11" points="85.1,60.3 92.2,64.3 85.1,68.3 		"/>
		<polygon class="st8" points="91.7,70.8 84.6,66.8 91.7,62.7 		"/>
		<polygon class="st10" points="85.1,68 92.2,72 85.1,76 		"/>
		<polygon class="st11" points="92.2,79.6 85.1,75.6 92.2,71.6 		"/>
		<polygon class="st8" points="84.4,73.9 91.5,77.9 84.4,81.9 		"/>
		<path class="st8" d="M89.2,84.2l-4-2.3l7.1-4c0,0-0.9,2.8-1.3,3.7C90.6,82.3,89.2,84.2,89.2,84.2z"/>
		<polygon class="st11" points="87.8,88.4 89.8,87.4 91.8,85.4 87.8,83.1 87.8,88.4 		"/>
		<polygon class="st10" points="79.7,38.3 82.7,40.3 81.1,40.3 		"/>
		<polygon class="st10" points="86.7,43.9 81.1,40.3 82.7,39.7 		"/>
		<polygon class="st11" points="79.2,40.3 86.2,44.3 79.2,48.3 		"/>
		<polygon class="st10" points="88.1,52.3 81.1,48.3 87.1,44.9 		"/>
		<polygon class="st11" points="81.1,48.3 88.1,52.3 81.1,56.3 		"/>
		<polygon class="st11" points="88.1,60.3 81.1,56.3 88.1,52.3 		"/>
		<polygon class="st10" points="83.2,58 88.1,60.3 82,62.7 		"/>
		<polygon class="st8" points="88.1,68.3 81.1,64.3 88.1,60.3 		"/>
		<polygon class="st10" points="81.1,64.3 88.1,68.3 81.1,72.3 		"/>
		<polygon class="st11" points="88.1,76.4 81.1,72.3 88.1,68.3 		"/>
		<polygon class="st12" points="81.1,72.3 88.1,76.4 81.1,80.4 		"/>
		<polygon class="st10" points="88.1,84.4 81.1,80.4 88.1,76.4 		"/>
		<polygon class="st11" points="81.1,80.4 88.1,84.4 82.7,83.7 		"/>
		<polygon class="st10" points="87.5,86.4 88.1,84.4 83.9,86.8 87.9,87.7 		"/>
		<polygon class="st10" points="73.6,34.1 77.1,35.7 74,36.3 		"/>
		<polygon class="st11" points="81.1,40.3 74,36.3 79.7,36.8 		"/>
		<polygon class="st8" points="74,36.3 81.1,40.3 74,44.3 		"/>
		<polygon class="st10" points="81.1,48.3 74,44.3 81.1,40.3 		"/>
		<polygon class="st10" points="74,44.3 81.1,48.3 75.9,47.6 		"/>
		<polygon class="st11" points="81.1,56.3 79.7,52.3 81.1,48.3 		"/>
		<polygon class="st10" points="81.1,72.3 79.7,70 81.1,64.7 		"/>
		<polygon class="st10" points="77.1,73 81.1,72.3 74,76.4 		"/>
		<polygon class="st8" points="81.1,80.4 74,76.4 81.1,72.3 		"/>
		<polygon class="st12" points="74,76.4 81.1,80.4 74,84.4 		"/>
		<polygon class="st8" points="79.7,84.4 74,84.4 81.1,80.4 		"/>
		<polygon class="st11" points="73.6,86.8 77.1,85.2 74,84.4 73.6,86.8 		"/>
		<polygon class="st10" points="74,36.3 66.9,32.3 72.3,33.7 		"/>
		<polygon class="st8" points="66.9,32.3 74,36.3 66.9,40.3 		"/>
		<polygon class="st10" points="74,44.3 66.9,40.3 74,36.3 		"/>
		<polygon class="st8" points="66.9,40.3 74,44.3 68.2,43.5 		"/>
		<polygon class="st10" points="74.9,46.7 72.3,45.2 74,44.3 		"/>
		<polygon class="st10" points="69.6,77.5 74,76.4 66.9,80.4 		"/>
		<polygon class="st11" points="74,84.4 66.9,80.4 74,76.4 		"/>
		<polygon class="st10" points="66.9,80.4 74,84.4 66.9,88.4 		"/>
		<polygon class="st8" points="73.2,86.8 74,84.4 66.9,88.4 72.3,87.3 		"/>
		<polygon class="st10" points="59.6,33.4 66.9,32.3 59.9,36.3 		"/>
		<polygon class="st11" points="66.9,40.3 59.9,36.3 66.9,32.3 		"/>
		<polygon class="st11" points="59.9,36.3 66.9,40.3 59.9,44.3 		"/>
		<polygon class="st10" points="64,42.7 59.9,43.5 66.9,40.3 		"/>
		<polygon class="st10" points="66.9,80.4 59.9,77.7 65.7,78.4 		"/>
		<polygon class="st12" points="59.9,77.7 66.9,80.4 59.9,84.4 		"/>
		<polygon class="st11" points="66.9,88.4 59.9,84.4 66.9,80.4 		"/>
		<polygon class="st8" points="61.8,87.7 66.9,88.4 59.9,84.4 60.8,87.7 		"/>
		<polygon class="st10" points="59.9,36.3 55,34.7 59.9,34.1 		"/>
		<polygon class="st8" points="54,34.7 59.9,36.3 52.8,40.3 		"/>
		<polygon class="st10" points="59.9,44.3 52.8,40.3 59.9,36.3 		"/>
		<polygon class="st10" points="52.8,40.3 57.2,44.3 52.8,48.3 		"/>
		<polygon class="st10" points="52.4,74.4 58.4,77.7 52.8,80.4 		"/>
		<polygon class="st11" points="59.9,84.4 52.8,80.4 59.4,77.7 		"/>
		<polygon class="st10" points="52.4,78.4 59.5,82.4 52.8,85.5 		"/>
		<polygon class="st8" points="59.5,87.7 59.5,79.7 52.4,83.7 59.4,87.7 		"/>
		<polygon class="st10" points="52.8,40.3 49.4,39.8 57.3,39.3 		"/>
		<polygon class="st10" points="45.7,41.5 52.8,45.5 45.7,49.5 		"/>
		<polygon class="st11" points="52.8,48.3 45.7,44.3 52.8,40.3 		"/>
		<polygon class="st8" points="45.7,44.3 52.8,48.3 45.7,52.3 		"/>
		<polygon class="st10" points="48.6,52.8 45.7,52.3 52.8,48.3 		"/>
		<polygon class="st10" points="45.7,52.3 47.7,56.3 45.7,60.3 		"/>
		<polygon class="st10" points="47.2,61.5 45.7,60.3 47.2,59.5 		"/>
		<polygon class="st11" points="45.7,60.3 47.2,64 45.7,68.3 		"/>
		<polygon class="st10" points="51.1,73.3 45.7,68.3 47.2,67.5 		"/>
		<polygon class="st8" points="45.7,68.3 51.1,72.3 45.7,76.4 		"/>
		<polygon class="st8" points="52.8,80.4 45.7,76.4 52.4,73.6 		"/>
		<polygon class="st10" points="45.7,76.4 52.8,80.4 47.2,82.4 		"/>
		<polygon class="st8" points="55.9,85.9 48.9,81.9 55.9,77.9 		"/>
		<polygon class="st10" points="49.3,49.8 42.2,45.8 49.3,41.8 		"/>
		<polygon class="st10" points="42.2,44.3 49.3,48.3 42.2,52.3 		"/>
		<polygon class="st10" points="45.7,52.3 38.7,48.3 45.7,44.3 		"/>
		<polygon class="st8" points="38.7,48.3 45.7,52.3 38.7,56.3 		"/>
		<polygon class="st11" points="45.7,60.3 38.7,56.3 45.7,52.3 		"/>
		<polygon class="st11" points="38.7,56.3 45.7,60.3 38.7,64.3 		"/>
		<polygon class="st8" points="45.7,68.3 38.7,64.3 45.7,60.3 		"/>
		<polygon class="st10" points="38.7,64.3 45.7,68.3 38.7,72.3 		"/>
		<polygon class="st11" points="45.7,76.4 38.7,72.3 45.7,68.3 		"/>
		<polygon class="st10" points="41.4,69.3 48.4,73.3 41.4,77.3 		"/>
		<polygon class="st11" points="50.7,83.7 43.7,79.7 50.7,75.7 		"/>
		<polygon class="st10" points="44.5,56.8 37.4,52.8 44.5,48.8 		"/>
		<polygon class="st10" points="37.4,54 44.5,58 37.4,62 		"/>
		<polygon class="st10" points="43.7,65.5 36.6,61.5 43.7,57.5 		"/>
		<polygon class="st10" points="37,58.4 44.1,62.4 37,66.4 		"/>
		<polygon class="st10" points="43.7,70.4 36.6,66.4 43.7,62.4 		"/>
		<polygon class="st10" points="38.7,64 45.7,68 38.7,72 		"/>
		<polygon class="st10" points="43.7,76 38.2,71.6 43.7,68 		"/>
	</g>
</g>
</svg>
